# xmcd
#
# Track frame offsets:
#	150
#	12709
#	26346
#	39665
#	51891
#	62951
#	77688
#	96326
#	107152
#	121712
#	134528
#	146838
#	163203
#	178635
#	191628
#	205949
#	223206
#	234799
#	248072
#	259874
#	276701
#	289164
#	303474
#	316576
#
# Disc length: 4417 seconds
# Revision: 0
# Processed by: cddbd v1.5.2PL0 Copyright (c) Steve Scherf et al.
# Submitted via: dBpowerAMP V12.0
#
DISCID=6f113f18
DTITLE=BD Blues - 16 Memphis Slim CD2 1953-1960
DYEAR=2011
DGENRE=Blues
TTITLE0=The come back
TTITLE1=Wish me well
TTITLE2=Memphis Slim U.S.A.
TTITLE3=Treat me like l treat you
TTITLE4=What's the matter
TTITLE5=The saddest song (Rollin' and Tumblin')
TTITLE6=How long
TTITLE7=Gotta find my baby
TTITLE8=Slim's blues
TTITLE9=Sassy Mae
TTITLE10=My gal keeps me crying
TTITLE11=Stewball
TTITLE12=Slim's thing
TTITLE13=The lord have mercy on me
TTITLE14=In the evening
TTITLE15=Raining the blues
TTITLE16=Rack'em back Jack
TTITLE17=We're just two of the same old kind
TTITLE18=El Capitan
TTITLE19=This is a good time to write a song
TTITLE20=True love
TTITLE21=Angel child
TTITLE22=The i.c. blues
TTITLE23=You're gonna need my help one day
EXTD=
EXTT0=
EXTT1=
EXTT2=
EXTT3=
EXTT4=
EXTT5=
EXTT6=
EXTT7=
EXTT8=
EXTT9=
EXTT10=
EXTT11=
EXTT12=
EXTT13=
EXTT14=
EXTT15=
EXTT16=
EXTT17=
EXTT18=
EXTT19=
EXTT20=
EXTT21=
EXTT22=
EXTT23=
PLAYORDER=
